<?xml version="1.0" standalone="no"?>
<!DOCTYPE svg PUBLIC "-//W3C//DTD SVG 20010904//EN"
 "http://www.w3.org/TR/2001/REC-SVG-20010904/DTD/svg10.dtd">
<svg version="1.0" xmlns="http://www.w3.org/2000/svg"
 width="342.000000pt" height="75.000000pt" viewBox="0 0 342.000000 75.000000"
 preserveAspectRatio="xMidYMid meet">

<g transform="translate(0.000000,75.000000) scale(0.100000,-0.100000)"
fill="#000000" stroke="none">
<path d="M1948 709 c-23 -13 -24 -72 -2 -89 23 -20 75 -16 90 5 42 57 -25 121
-88 84z"/>
<path d="M70 683 c0 -5 45 -134 99 -288 l98 -280 79 0 79 0 93 270 c50 149 95
278 98 288 5 15 -2 17 -60 17 l-65 0 -50 -157 c-27 -87 -57 -187 -66 -223 -22
-87 -30 -100 -39 -64 -3 16 -36 122 -73 237 l-67 207 -63 0 c-35 0 -63 -3 -63
-7z"/>
<path d="M1720 585 c0 -58 -2 -105 -5 -105 -3 0 -18 15 -34 33 -27 30 -34 32
-93 32 -50 0 -70 -5 -96 -23 -101 -73 -109 -288 -14 -374 68 -61 166 -59 216
5 l26 32 0 -37 0 -38 55 0 55 0 0 290 0 290 -55 0 -55 0 0 -105z m-47 -146
c54 -42 61 -166 12 -215 -44 -44 -116 -28 -141 31 -51 124 41 254 129 184z"/>
<path d="M2640 600 c0 -49 -1 -50 -30 -50 -29 0 -30 -2 -30 -45 0 -43 1 -45
30 -45 l30 0 0 -135 c0 -151 9 -185 57 -203 52 -20 72 -23 108 -16 37 7 42 21
29 72 -5 17 -14 22 -39 22 -21 0 -35 6 -39 16 -3 9 -6 67 -6 130 l0 114 40 0
40 0 0 45 0 45 -40 0 -40 0 0 50 0 50 -55 0 -55 0 0 -50z"/>
<path d="M740 528 c-66 -34 -101 -90 -107 -172 -11 -133 43 -223 150 -246 96
-22 180 4 230 72 24 33 22 37 -33 49 -37 8 -45 7 -72 -16 -52 -44 -136 -25
-157 36 -6 18 -11 36 -11 40 0 5 68 9 150 9 l150 0 0 38 c0 55 -17 107 -47
143 -58 68 -170 89 -253 47z m145 -74 c16 -6 45 -54 45 -74 0 -6 -36 -10 -96
-10 -94 0 -95 0 -89 23 13 41 46 67 86 67 21 0 45 -3 54 -6z"/>
<path d="M1127 543 c-4 -3 -7 -102 -7 -220 l0 -213 60 0 60 0 0 139 c0 77 3
147 6 156 9 23 57 45 99 45 l35 0 0 50 0 50 -36 0 c-46 0 -71 -14 -94 -53
l-20 -32 0 43 0 42 -48 0 c-27 0 -52 -3 -55 -7z"/>
<path d="M1937 544 c-4 -4 -7 -103 -7 -221 l0 -213 60 0 60 0 -2 218 -3 217
-50 3 c-28 2 -54 0 -58 -4z"/>
<path d="M2239 527 c-124 -66 -146 -274 -40 -370 102 -92 271 -67 322 47 20
46 19 48 -51 59 -32 4 -38 2 -52 -24 -47 -82 -154 -46 -165 55 -11 96 25 166
86 166 43 0 60 -9 77 -42 14 -28 17 -29 62 -22 61 9 63 10 51 42 -37 98 -186
144 -290 89z"/>
<path d="M3000 528 c-69 -35 -102 -90 -108 -182 -4 -67 -2 -81 22 -131 38 -76
95 -110 186 -110 138 1 210 80 210 229 0 68 -23 128 -61 163 -62 56 -172 70
-249 31z m155 -90 c48 -42 53 -148 11 -212 -33 -52 -120 -38 -146 23 -7 19
-11 57 -8 97 4 58 8 70 32 90 34 30 77 31 111 2z"/>
</g>
</svg>
